<svg width="25" height="25" viewBox="0 0 25 25" fill="none" xmlns="http://www.w3.org/2000/svg">
<path d="M6.88559 19.4167C9.09159 19.4167 10.8856 17.6227 10.8856 15.4167V5.27166L19.8856 8.54366V15.9737C19.2805 15.6131 18.59 15.4208 17.8856 15.4167C15.6796 15.4167 13.8856 17.2107 13.8856 19.4167C13.8856 21.6227 15.6796 23.4167 17.8856 23.4167C20.0916 23.4167 21.8856 21.6227 21.8856 19.4167V7.84366C21.8857 7.63849 21.8226 7.43826 21.7049 7.27024C21.5872 7.10221 21.4205 6.97456 21.2276 6.90466L10.2276 2.90466C10.0766 2.84946 9.91448 2.83152 9.75506 2.85237C9.59564 2.87321 9.4436 2.93223 9.31186 3.02441C9.18013 3.11658 9.07259 3.23919 8.99837 3.38182C8.92416 3.52445 8.88547 3.68288 8.88559 3.84366V11.9737C8.28046 11.6131 7.58998 11.4208 6.88559 11.4167C4.67959 11.4167 2.88559 13.2107 2.88559 15.4167C2.88559 17.6227 4.67959 19.4167 6.88559 19.4167Z" fill="black"/>
</svg>
